<svg width="48" height="48" viewBox="0 0 48 48" fill="none" xmlns="http://www.w3.org/2000/svg"><rect width="48" height="48" rx="24" fill="#D1E9FF"></rect><path d="M26 33C26 33.5523 26.4477 34 27 34C27.5523 34 28 33.5523 28 33H26ZM20 33C20 33.5523 20.4477 34 21 34C21.5523 34 22 33.5523 22 33H20ZM26.454 26.109L26 27H26L26.454 26.109ZM26.891 26.546L26 27L26.891 26.546ZM21.546 26.109L21.092 25.218L21.546 26.109ZM21.109 26.546L20.218 26.092L21.109 26.546ZM22 19C22 18.4477 21.5523 18 21 18C20.4477 18 20 18.4477 20 19H22ZM16 19C16 18.4477 15.5523 18 15 18C14.4477 18 14 18.4477 14 19H16ZM28 19C28 18.4477 27.5523 18 27 18C26.4477 18 26 18.4477 26 19H28ZM34 19C34 18.4477 33.5523 18 33 18C32.4477 18 32 18.4477 32 19H34ZM16.092 32.782L16.546 31.891L16.092 32.782ZM15.218 31.908L16.109 31.454L15.218 31.908ZM32.782 31.908L31.891 31.454L32.782 31.908ZM31.908 32.782L31.454 31.891L31.908 32.782ZM31.908 15.218L31.454 16.109L31.908 15.218ZM32.782 16.092L31.891 16.546L32.782 16.092ZM16.092 15.218L16.546 16.109L16.092 15.218ZM15.218 16.092L16.109 16.546L15.218 16.092ZM22.6 27H25.4V25H22.6V27ZM26 27.6V33H28V27.6H26ZM22 33V27.6H20V33H22ZM25.4 27C25.6965 27 25.8588 27.0008 25.9754 27.0103C26.0803 27.0189 26.0575 27.0293 26 27L26.908 25.218C26.6366 25.0797 26.3668 25.0356 26.1382 25.0169C25.9213 24.9992 25.6635 25 25.4 25V27ZM28 27.6C28 27.3365 28.0008 27.0787 27.9831 26.8618C27.9644 26.6332 27.9203 26.3634 27.782 26.092L26 27C25.9707 26.9425 25.9811 26.9197 25.9897 27.0246C25.9992 27.1412 26 27.3035 26 27.6H28ZM26 27H26L27.782 26.092C27.5903 25.7157 27.2843 25.4097 26.908 25.218L26 27ZM22.6 25C22.3365 25 22.0787 24.9992 21.8618 25.0169C21.6332 25.0356 21.3634 25.0797 21.092 25.218L22 27C21.9425 27.0293 21.9197 27.0189 22.0246 27.0103C22.1412 27.0008 22.3035 27 22.6 27V25ZM22 27.6C22 27.3035 22.0008 27.1412 22.0103 27.0246C22.0189 26.9197 22.0293 26.9425 22 27L20.218 26.092C20.0797 26.3634 20.0356 26.6332 20.0169 26.8618C19.9992 27.0787 20 27.3365 20 27.6H22ZM21.092 25.218C20.7157 25.4097 20.4097 25.7157 20.218 26.092L22 27L21.092 25.218ZM20 19C20 20.1046 19.1046 21 18 21V23C20.2091 23 22 21.2091 22 19H20ZM18 21C16.8954 21 16 20.1046 16 19H14C14 21.2091 15.7909 23 18 23V21ZM26 19C26 20.1046 25.1046 21 24 21V23C26.2091 23 28 21.2091 28 19H26ZM24 21C22.8954 21 22 20.1046 22 19H20C20 21.2091 21.7909 23 24 23V21ZM32 19C32 20.1046 31.1046 21 30 21V23C32.2091 23 34 21.2091 34 19H32ZM30 21C28.8954 21 28 20.1046 28 19H26C26 21.2091 27.7909 23 30 23V21ZM18.2 16H29.8V14H18.2V16ZM32 18.2V29.8H34V18.2H32ZM29.8 32H18.2V34H29.8V32ZM16 29.8V18.2H14V29.8H16ZM18.2 32C17.6234 32 17.2512 31.9992 16.9678 31.9761C16.6962 31.9539 16.5955 31.9162 16.546 31.891L15.638 33.673C16.0164 33.8658 16.4096 33.9371 16.805 33.9694C17.1886 34.0008 17.6564 34 18.2 34V32ZM14 29.8C14 30.3436 13.9992 30.8114 14.0306 31.195C14.0629 31.5904 14.1342 31.9836 14.327 32.362L16.109 31.454C16.0838 31.4045 16.0461 31.3038 16.0239 31.0322C16.0008 30.7488 16 30.3766 16 29.8H14ZM16.546 31.891C16.3578 31.7951 16.2049 31.6422 16.109 31.454L14.327 32.362C14.6146 32.9265 15.0735 33.3854 15.638 33.673L16.546 31.891ZM32 29.8C32 30.3766 31.9992 30.7488 31.9761 31.0322C31.9539 31.3038 31.9162 31.4045 31.891 31.454L33.673 32.362C33.8658 31.9836 33.9371 31.5904 33.9694 31.195C34.0008 30.8114 34 30.3436 34 29.8H32ZM29.8 34C30.3436 34 30.8114 34.0008 31.195 33.9694C31.5904 33.9371 31.9836 33.8658 32.362 33.673L31.454 31.891C31.4045 31.9162 31.3038 31.9539 31.0322 31.9761C30.7488 31.9992 30.3766 32 29.8 32V34ZM31.891 31.454C31.7951 31.6422 31.6422 31.7951 31.454 31.891L32.362 33.673C32.9265 33.3854 33.3854 32.9265 33.673 32.362L31.891 31.454ZM29.8 16C30.3766 16 30.7488 16.0008 31.0322 16.0239C31.3038 16.0461 31.4045 16.0838 31.454 16.109L32.362 14.327C31.9836 14.1342 31.5904 14.0629 31.195 14.0306C30.8114 13.9992 30.3436 14 29.8 14V16ZM34 18.2C34 17.6564 34.0008 17.1886 33.9694 16.805C33.9371 16.4096 33.8658 16.0164 33.673 15.638L31.891 16.546C31.9162 16.5955 31.9539 16.6962 31.9761 16.9678C31.9992 17.2512 32 17.6234 32 18.2H34ZM31.454 16.109C31.6422 16.2049 31.7951 16.3578 31.891 16.546L33.673 15.638C33.3854 15.0735 32.9265 14.6146 32.362 14.327L31.454 16.109ZM18.2 14C17.6564 14 17.1886 13.9992 16.805 14.0306C16.4096 14.0629 16.0164 14.1342 15.638 14.327L16.546 16.109C16.5955 16.0838 16.6962 16.0461 16.9678 16.0239C17.2512 16.0008 17.6234 16 18.2 16V14ZM16 18.2C16 17.6234 16.0008 17.2512 16.0239 16.9678C16.0461 16.6962 16.0838 16.5955 16.109 16.546L14.327 15.638C14.1342 16.0164 14.0629 16.4096 14.0306 16.805C13.9992 17.1886 14 17.6564 14 18.2H16ZM15.638 14.327C15.0735 14.6146 14.6146 15.0735 14.327 15.638L16.109 16.546C16.2049 16.3578 16.3578 16.2049 16.546 16.109L15.638 14.327Z" fill="#175CD3"></path></svg>