<svg width="24" height="24" viewBox="0 0 24 24" fill="none" xmlns="http://www.w3.org/2000/svg"><path fill-rule="evenodd" clip-rule="evenodd" d="M9.22207 3.54074C8.58387 3.54074 8.06651 4.0581 8.06651 4.69629V6.14074C8.06651 6.5662 7.7216 6.91111 7.29614 6.91111C6.87068 6.91111 6.52577 6.5662 6.52577 6.14074V4.69629C6.52577 3.20717 7.73294 2 9.22207 2H17.4563C17.9514 2 18.4229 2.21172 18.7518 2.58177L22.0731 6.31826C22.3552 6.63554 22.5109 7.0453 22.5109 7.46982V20.1037C22.5109 21.5928 21.3038 22.8 19.8147 22.8H8.74058C7.51738 22.8 6.52577 21.8084 6.52577 20.5852C6.52577 20.1597 6.87068 19.8148 7.29614 19.8148C7.7216 19.8148 8.06651 20.1597 8.06651 20.5852C8.06651 20.9575 8.3683 21.2592 8.74058 21.2592H19.8147C20.4528 21.2592 20.9702 20.7419 20.9702 20.1037V7.46982C20.9702 7.42265 20.9529 7.37712 20.9216 7.34187L17.6002 3.60538C17.5637 3.56426 17.5113 3.54074 17.4563 3.54074H9.22207Z" fill="#2661C5"></path><path fill-rule="evenodd" clip-rule="evenodd" d="M17.8887 2C18.3142 2 18.6591 2.34491 18.6591 2.77037V6.81481H21.7406C22.166 6.81481 22.5109 7.15972 22.5109 7.58518C22.5109 8.01065 22.166 8.35555 21.7406 8.35555H17.8887C17.4633 8.35555 17.1184 8.01065 17.1184 7.58518V2.77037C17.1184 2.34491 17.4633 2 17.8887 2Z" fill="#2661C5"></path><path d="M9.21188 11.437H5.37022V12.0692H6.91911V12.6065H6.12428V13.0701H6.95987C6.79683 13.7338 5.45174 14.0499 5.38041 14.0077C5.81858 15.5986 6.97006 16.2518 6.97006 16.2518H8.1623C6.68474 15.5986 6.33827 14.5135 6.33827 14.5135C6.89873 14.3976 7.46937 13.9761 7.59165 13.0806H8.40686V12.617H7.59165V12.0797H9.22207V11.4476L9.21188 11.437Z" fill="#2661C5"></path><path fill-rule="evenodd" clip-rule="evenodd" d="M4.40725 9.22222C4.2477 9.22222 4.11836 9.35156 4.11836 9.51111V17.6963C4.11836 17.8558 4.2477 17.9852 4.40725 17.9852H10.185C10.3446 17.9852 10.4739 17.8558 10.4739 17.6963V9.51111C10.4739 9.35156 10.3446 9.22222 10.185 9.22222H4.40725ZM2.77022 9.51111C2.77022 8.607 3.50314 7.87407 4.40725 7.87407H10.185C11.0891 7.87407 11.8221 8.607 11.8221 9.51111V17.6963C11.8221 18.6004 11.0891 19.3333 10.185 19.3333H4.40725C3.50314 19.3333 2.77022 18.6004 2.77022 17.6963V9.51111Z" fill="#2661C5"></path><path d="M1.99985 10.9556C1.99985 10.6896 2.21541 10.4741 2.48133 10.4741H3.44429C3.71021 10.4741 3.92577 10.6896 3.92577 10.9556V12.8815C3.92577 13.1474 3.71021 13.363 3.44429 13.363H2.48133C2.21541 13.363 1.99985 13.1474 1.99985 12.8815V10.9556Z" fill="#2661C5"></path><path fill-rule="evenodd" clip-rule="evenodd" d="M13.0737 11.6296C13.0737 11.2042 13.4186 10.8593 13.8441 10.8593H18.0811C18.5066 10.8593 18.8515 11.2042 18.8515 11.6296C18.8515 12.0551 18.5066 12.4 18.0811 12.4H13.8441C13.4186 12.4 13.0737 12.0551 13.0737 11.6296Z" fill="#2661C5"></path><path fill-rule="evenodd" clip-rule="evenodd" d="M13.0737 15.2889C13.0737 14.8634 13.4186 14.5185 13.8441 14.5185H18.0811C18.5066 14.5185 18.8515 14.8634 18.8515 15.2889C18.8515 15.7143 18.5066 16.0593 18.0811 16.0593H13.8441C13.4186 16.0593 13.0737 15.7143 13.0737 15.2889Z" fill="#2661C5"></path></svg>