<svg width="5" height="10" viewBox="0 0 20 20" fill="none" xmlns="http://www.w3.org/2000/svg"><path d="M15.6582 6.98913C15.7877 7.15663 15.8486 7.36714 15.8286 7.5779C15.8085 7.78867 15.7089 7.9839 15.5501 8.12393C15.3913 8.26395 15.1852 8.33828 14.9736 8.33182C14.7619 8.32536 14.5607 8.23859 14.4107 8.08913L9.9999 3.6783L5.58907 8.08913L5.51074 8.1583C5.34324 8.28781 5.13274 8.34871 4.92197 8.32863C4.7112 8.30855 4.51597 8.209 4.37594 8.0502C4.23592 7.89139 4.16159 7.68524 4.16805 7.47362C4.17451 7.26199 4.26128 7.06076 4.41074 6.9108L9.41074 1.9108L9.48907 1.84163C9.64941 1.71726 9.84962 1.65566 10.0521 1.66839C10.2547 1.68113 10.4456 1.76732 10.5891 1.9108L15.5891 6.9108L15.6582 6.98913ZM4.34157 13.0108C4.21206 12.8433 4.15116 12.6328 4.17124 12.422C4.19132 12.2113 4.29087 12.016 4.44967 11.876C4.60848 11.736 4.81463 11.6616 5.02625 11.6681C5.23788 11.6746 5.43911 11.7613 5.58907 11.9108L9.9999 16.3216L14.4107 11.9108L14.4891 11.8416C14.6566 11.7121 14.8671 11.6512 15.0778 11.6713C15.2886 11.6914 15.4838 11.7909 15.6239 11.9497C15.7639 12.1085 15.8382 12.3147 15.8318 12.5263C15.8253 12.7379 15.7385 12.9392 15.5891 13.0891L10.5891 18.0891L10.5107 18.1583C10.3504 18.2827 10.1502 18.3443 9.94767 18.3315C9.74515 18.3188 9.55423 18.2326 9.41074 18.0891L4.41074 13.0891L4.34157 13.0108Z" fill="#fff"></path></svg>