<svg width="15" height="15" viewBox="0 0 18 18" fill="none" xmlns="http://www.w3.org/2000/svg"><g opacity="0.6"><rect x="4.5" y="1" width="13.5" height="15.75" rx="1" fill="#2FB776"></rect><path d="M4.5 12.8125H18V15.75C18 16.3023 17.5523 16.75 17 16.75H5.5C4.94772 16.75 4.5 16.3023 4.5 15.75V12.8125Z" fill="url(#paint0_linear_5165_19813)"></path><rect x="11.25" y="8.875" width="6.75" height="3.9375" fill="#229C5B"></rect><rect x="11.25" y="4.9375" width="6.75" height="3.9375" fill="#27AE68"></rect><path d="M4.5 2C4.5 1.44772 4.94772 1 5.5 1H11.25V4.9375H4.5V2Z" fill="#1D854F"></path><rect x="4.5" y="4.9375" width="6.75" height="3.9375" fill="#197B43"></rect><rect x="4.5" y="8.875" width="6.75" height="3.9375" fill="#1B5B38"></rect><path d="M4.5 7.9375C4.5 6.28065 5.84315 4.9375 7.5 4.9375H8.25C9.90685 4.9375 11.25 6.28065 11.25 7.9375V12.0625C11.25 13.7194 9.90685 15.0625 8.25 15.0625H4.5V7.9375Z" fill="black" fill-opacity="0.3"></path><rect y="3.8125" width="10.125" height="10.125" rx="1" fill="url(#paint1_linear_5165_19813)"></rect><path d="M7.3125 11.6875L5.72745 8.81875L7.24291 6.0625H6.0058L5.07023 7.82232L4.15013 6.0625H2.87436L4.39755 8.81875L2.8125 11.6875H4.04961L5.04704 9.82321L6.03673 11.6875H7.3125Z" fill="white"></path><g style="mix-blend-mode: hue;"><rect width="18" height="18" fill="#B9B9B9"></rect></g></g><defs><linearGradient id="paint0_linear_5165_19813" x1="4.5" y1="14.7812" x2="18" y2="14.7813" gradientUnits="userSpaceOnUse"><stop stop-color="#424242"></stop><stop offset="1"></stop></linearGradient><linearGradient id="paint1_linear_5165_19813" x1="0" y1="8.875" x2="10.125" y2="8.875" gradientUnits="userSpaceOnUse"><stop stop-color="#185A30"></stop><stop offset="1" stop-color="#176F3D"></stop></linearGradient></defs></svg>