<svg width="24" height="24" viewBox="0 0 24 24" fill="none" xmlns="http://www.w3.org/2000/svg"><path d="M7 5.5V4C7 2.89543 7.89543 2 9 2H17.5509C17.8366 2 18.1086 2.12215 18.2983 2.33564L21.7474 6.21584C21.9101 6.39889 22 6.63529 22 6.8802V20C22 21.1046 21.1046 22 20 22H8.5C7.67157 22 7 21.3284 7 20.5V20.5" stroke="#2661C5" stroke-width="1.6" stroke-linecap="round"></path><path d="M18 2V7H22" stroke="#2661C5" stroke-width="1.6" stroke-linecap="round" stroke-linejoin="round"></path><path d="M6.05078 12.9961V15.2891C5.95703 15.3958 5.8138 15.5104 5.62109 15.6328C5.43099 15.7552 5.1875 15.8607 4.89062 15.9492C4.59375 16.0352 4.23958 16.0781 3.82812 16.0781C3.45573 16.0781 3.11719 16.0182 2.8125 15.8984C2.50781 15.776 2.24609 15.5977 2.02734 15.3633C1.80859 15.1263 1.63932 14.8372 1.51953 14.4961C1.40234 14.1549 1.34375 13.7643 1.34375 13.3242V12.9883C1.34375 12.5482 1.40234 12.1576 1.51953 11.8164C1.63672 11.4753 1.80208 11.1875 2.01562 10.9531C2.22917 10.7161 2.48307 10.5365 2.77734 10.4141C3.07161 10.2917 3.39714 10.2305 3.75391 10.2305C4.26172 10.2305 4.67708 10.3125 5 10.4766C5.32292 10.638 5.56771 10.862 5.73438 11.1484C5.90365 11.4349 6.00781 11.7643 6.04688 12.1367H4.82031C4.79427 11.9466 4.74219 11.7826 4.66406 11.6445C4.58854 11.5065 4.48047 11.401 4.33984 11.3281C4.19922 11.2526 4.01693 11.2148 3.79297 11.2148C3.61328 11.2148 3.45052 11.2526 3.30469 11.3281C3.16146 11.401 3.04036 11.5117 2.94141 11.6602C2.84245 11.8086 2.76693 11.9935 2.71484 12.2148C2.66276 12.4336 2.63672 12.6888 2.63672 12.9805V13.3242C2.63672 13.6159 2.66276 13.8724 2.71484 14.0938C2.76953 14.3151 2.84896 14.5 2.95312 14.6484C3.05729 14.7943 3.1888 14.9049 3.34766 14.9805C3.50911 15.056 3.69661 15.0938 3.91016 15.0938C4.07682 15.0938 4.21745 15.0807 4.33203 15.0547C4.44661 15.026 4.54036 14.9909 4.61328 14.9492C4.6862 14.9049 4.74089 14.8646 4.77734 14.8281V13.8828H3.76562V12.9961H6.05078ZM9.81317 14.5C9.81317 14.4036 9.79884 14.3177 9.7702 14.2422C9.74155 14.1641 9.68947 14.0924 9.61395 14.0273C9.53843 13.9622 9.43166 13.8971 9.29364 13.832C9.15562 13.7643 8.97463 13.6953 8.75067 13.625C8.49546 13.5417 8.25197 13.4479 8.0202 13.3438C7.79103 13.237 7.58661 13.1133 7.40692 12.9727C7.22723 12.832 7.0853 12.668 6.98114 12.4805C6.87957 12.293 6.82879 12.0742 6.82879 11.8242C6.82879 11.582 6.88218 11.3633 6.98895 11.168C7.09572 10.9727 7.24546 10.806 7.43817 10.668C7.63088 10.5273 7.85744 10.4206 8.11786 10.3477C8.37827 10.2721 8.66473 10.2344 8.97723 10.2344C9.3939 10.2344 9.75978 10.3086 10.0749 10.457C10.3926 10.6029 10.64 10.8086 10.8171 11.0742C10.9942 11.3372 11.0827 11.6432 11.0827 11.9922H9.81707C9.81707 11.8385 9.78452 11.7031 9.71942 11.5859C9.65692 11.4661 9.56056 11.3724 9.43036 11.3047C9.30275 11.237 9.14259 11.2031 8.94989 11.2031C8.76239 11.2031 8.60483 11.2318 8.47723 11.2891C8.35223 11.3438 8.25718 11.4193 8.19207 11.5156C8.12957 11.612 8.09832 11.7174 8.09832 11.832C8.09832 11.9232 8.12176 12.0065 8.16864 12.082C8.21812 12.1549 8.28843 12.224 8.37957 12.2891C8.47332 12.3516 8.58791 12.4115 8.72332 12.4688C8.85874 12.526 9.01369 12.5807 9.18817 12.6328C9.49286 12.7292 9.76239 12.8359 9.99676 12.9531C10.2337 13.0703 10.433 13.2031 10.5944 13.3516C10.7559 13.5 10.877 13.668 10.9577 13.8555C11.041 14.043 11.0827 14.2552 11.0827 14.4922C11.0827 14.7448 11.0332 14.9688 10.9343 15.1641C10.8379 15.3594 10.6973 15.526 10.5124 15.6641C10.3301 15.7995 10.1113 15.9023 9.85614 15.9727C9.60093 16.043 9.31577 16.0781 9.00067 16.0781C8.71421 16.0781 8.43166 16.0417 8.15301 15.9688C7.87437 15.8932 7.62176 15.7786 7.3952 15.625C7.17124 15.4714 6.99155 15.276 6.85614 15.0391C6.72332 14.7995 6.65692 14.5156 6.65692 14.1875H7.93036C7.93036 14.3594 7.95509 14.5052 8.00457 14.625C8.05405 14.7422 8.12437 14.8372 8.21551 14.9102C8.30926 14.9831 8.42254 15.0352 8.55536 15.0664C8.68817 15.0977 8.83661 15.1133 9.00067 15.1133C9.19077 15.1133 9.34442 15.0872 9.46161 15.0352C9.5814 14.9805 9.66994 14.9062 9.72723 14.8125C9.78452 14.7188 9.81317 14.6146 9.81317 14.5ZM14.4232 10.3125V16H13.1537V10.3125H14.4232ZM16.1537 10.3125V11.3008H11.4584V10.3125H16.1537Z" fill="#2661C5"></path></svg>