<svg width="176" height="29" viewBox="0 0 176 29" fill="none" xmlns="http://www.w3.org/2000/svg"><g clip-path="url(#clip0_39_3710)"><path d="M118.136 23.5828V28.1884H114.383V7.33252H118.136V19.1106L122.728 12.5569H126.966L122.022 19.1106L127.584 28.1872H122.994L119.462 21.9001L118.138 23.5828H118.136ZM3.88579 22.388V28.1895H0V7.33252H3.88464V17.0292L9.80056 7.33252H14.2595L8.21413 16.0545L15.0117 28.1872H10.5077L5.91708 19.2438L3.88579 22.3868V22.388ZM108.511 18.8452C108.511 16.6757 107.54 15.5689 105.863 15.5689C104.052 15.5689 103.171 16.6757 103.171 18.8452V21.768C103.171 23.9375 104.053 25.0442 105.863 25.0442C107.54 25.0442 108.511 23.9375 108.511 21.768V18.8452ZM99.5493 21.768V18.8452C99.5493 16.5424 100.036 14.9929 101.271 13.8862C102.331 12.7794 103.92 12.2927 105.862 12.2927C107.803 12.2927 109.35 12.7794 110.453 13.8862C111.645 14.9929 112.131 16.5424 112.131 18.8452V21.768C112.131 24.0707 111.646 25.6642 110.453 26.727C109.35 27.8337 107.804 28.3205 105.862 28.3205C103.919 28.3205 102.329 27.8337 101.271 26.727C100.035 25.6642 99.5493 24.0696 99.5493 21.768ZM93.8541 18.8452C93.8541 16.6757 93.0152 15.5689 91.3375 15.5689C89.5269 15.5689 88.6453 16.6757 88.6453 18.8452V21.768C88.6453 23.9375 89.5281 25.0442 91.3375 25.0442C93.0152 25.0442 93.8541 23.9375 93.8541 21.768V18.8452ZM84.8924 21.768V18.8452C84.8924 16.5424 85.5106 14.9929 86.614 13.8862C87.8053 12.7794 89.3952 12.2927 91.3375 12.2927C93.2798 12.2927 94.8247 12.7794 95.9281 13.8862C96.9877 14.9929 97.6059 16.5424 97.6059 18.8452V21.768C97.6059 24.0707 96.9877 25.6642 95.9281 26.727C94.8247 27.8337 93.2798 28.3205 91.3375 28.3205C89.3952 28.3205 87.8053 27.8337 86.6152 26.727C85.5117 25.6642 84.8935 24.0696 84.8935 21.768M79.1544 18.8452C79.1544 17.7825 78.9337 16.897 78.4484 16.3211C78.0949 15.8343 77.4767 15.5689 76.6378 15.5689C75.9307 15.5168 75.2467 15.8355 74.8284 16.4103C74.3003 17.108 74.0346 17.9702 74.0785 18.8452V21.768C74.0277 22.6441 74.2946 23.5087 74.8284 24.2028C75.3137 24.8229 75.8879 25.0442 76.7707 25.0442C78.3156 25.0442 79.1544 23.9375 79.1544 21.768V18.8452ZM73.9884 28.1884H70.3244V7.33252H74.0762V14.0183C74.915 12.915 76.2242 12.2741 77.6084 12.2915C79.1533 12.2915 80.5213 12.7783 81.493 13.885C82.4197 14.9918 82.905 16.5413 82.905 18.7559V21.9001C82.905 24.0696 82.4197 25.6631 81.493 26.7258C80.534 27.7804 79.1637 28.3622 77.7413 28.3193C76.1525 28.3193 74.9601 27.8326 73.9884 26.7258V28.1872V28.1884ZM64.1 22.6093V21.4145H61.3188C59.774 21.4145 59.0229 22.1226 59.0229 23.3626C59.0229 24.6908 59.7728 25.3108 61.3188 25.3108C62.2906 25.3108 63.0404 25.1775 63.3917 24.6908C63.8897 24.1171 64.1439 23.3707 64.0977 22.6117M67.7616 17.874V28.1895H64.0988V26.8614C63.6632 27.3308 63.1375 27.7074 62.554 27.9682C61.8931 28.2231 61.1883 28.3437 60.4811 28.3228C58.8034 28.3228 57.5671 27.9682 56.7282 27.1268C55.8316 26.1185 55.3578 24.802 55.404 23.4519C55.3509 22.1655 55.887 20.9254 56.8611 20.0864C57.6999 19.3342 59.0241 18.8463 60.7457 18.8463H64.1012V17.6515C64.1012 15.9688 63.2623 15.0833 61.5846 15.0833C60.9699 15.0833 60.3748 15.3035 59.9068 15.7034C59.5209 16.0371 59.2968 16.5204 59.2887 17.0315V17.1648H55.7565V17.0315C55.7403 15.686 56.3238 14.4042 57.3464 13.5327C58.4498 12.6913 59.9068 12.2927 61.5846 12.2927C63.6147 12.2927 65.0717 12.7794 66.1752 13.6208C67.2786 14.5943 67.7639 15.9676 67.7639 17.8717M51.0757 23.3626C51.0757 24.4254 51.561 25.0454 52.6645 25.0454H53.7679V28.1895H52.0451C50.8065 28.2104 49.6002 27.7862 48.6458 26.9935C47.7526 26.0896 47.2731 24.8553 47.3205 23.584V15.0822H45.1575V12.426H47.3205V9.41509L51.0734 8.04293V12.426H54.1192V15.0822H51.0734V23.3626H51.0757ZM40.0411 22.6093V21.4145H37.3489C35.8041 21.4145 34.9652 22.1226 34.9652 23.3626C34.9652 24.6908 35.6712 25.3108 37.2611 25.3108C38.2328 25.3108 38.9388 25.1775 39.4241 24.6908C39.8366 24.0765 40.0527 23.351 40.0423 22.6117M43.7917 17.8729V28.1895H40.1278V26.8614C39.6298 27.3157 39.0636 27.6889 38.4501 27.9682C37.7903 28.2278 37.0843 28.3483 36.3772 28.3228C34.8323 28.3228 33.596 27.9682 32.6682 27.1268C31.7403 26.1348 31.2481 24.8113 31.3001 23.4519C31.2458 22.1655 31.7819 20.9254 32.7548 20.0864C33.9172 19.2311 35.3326 18.7942 36.7723 18.8463H40.0411V17.6515C40.0411 15.9688 39.2023 15.0833 37.4806 15.0833C36.9052 15.0833 36.3518 15.3059 35.9358 15.7034C35.4875 15.9989 35.2079 16.4937 35.1859 17.0315V17.1648H31.7842V17.0315C31.7842 15.5724 32.2695 14.3741 33.373 13.5327C34.3436 12.6913 35.8006 12.2927 37.6112 12.2927C39.5535 12.2927 41.0984 12.7794 42.0701 13.6208C43.1736 14.5943 43.7917 15.9676 43.7917 17.8717M20.3083 7.33252V13.8862C20.73 13.3021 21.3366 12.8802 22.0299 12.6902C22.625 12.4178 23.2732 12.2822 23.9283 12.2915C25.5171 12.2915 26.8424 12.7783 27.6812 13.7506C28.564 14.7252 29.0493 16.1855 29.0493 17.8682V28.1872H25.2975V18.3573C25.3299 17.6051 25.0595 16.8716 24.5476 16.3199C24.1409 15.8146 23.517 15.5342 22.8699 15.5678C22.1882 15.5527 21.5307 15.8251 21.0593 16.3199C20.5474 16.8704 20.2771 17.604 20.3094 18.3573V28.1872H16.5565V7.33252H20.3094H20.3083Z" fill="white"></path><path d="M174.989 28.2243H135.614C135.06 28.2243 134.608 27.7758 134.603 27.2195L134.533 19.1059L134.601 13.1248C134.607 12.5697 135.059 12.1223 135.612 12.1223H174.99C175.548 12.1223 176.001 12.5766 176.001 13.1364V27.2102C176.001 27.77 175.548 28.2243 174.99 28.2243H174.989Z" fill="#DB353B"></path><path d="M148.486 20.4514C148.163 21.0285 147.675 21.4898 147.023 21.8363C146.372 22.1828 145.575 22.3555 144.633 22.3555H143.038V26.2784H139.817V14.658H144.633C145.564 14.658 146.356 14.8225 147.007 15.1528C147.659 15.4819 148.149 15.9386 148.478 16.5203C148.806 17.1033 148.972 17.7731 148.972 18.5311C148.972 19.2345 148.81 19.8742 148.486 20.4514ZM145.684 18.5311C145.684 17.685 145.229 17.262 144.32 17.262H143.038V19.7838H144.32C145.229 19.7838 145.684 19.3666 145.684 18.5311Z" fill="white"></path><path d="M156.136 26.2784L153.836 21.9927H153.49V26.2784H150.269V14.658H155.347C156.279 14.658 157.067 14.8202 157.714 15.1435C158.36 15.468 158.847 15.9131 159.176 16.4786C159.505 17.0453 159.67 17.6793 159.67 18.3827C159.67 19.1743 159.454 19.8696 159.02 20.4676C158.587 21.0668 157.955 21.4921 157.122 21.7447L159.736 26.2772H156.136V26.2784ZM153.49 19.7838H155.085C155.523 19.7838 155.852 19.6795 156.071 19.4709C156.289 19.2623 156.399 18.9599 156.399 18.5647C156.399 18.1915 156.287 17.8971 156.061 17.6827C155.837 17.4683 155.511 17.3617 155.084 17.3617H153.489V19.785L153.49 19.7838Z" fill="white"></path><path d="M163.697 25.6271C162.787 25.116 162.066 24.4068 161.536 23.5005C161.005 22.5942 160.739 21.5697 160.739 20.4259C160.739 19.282 161.005 18.2587 161.536 17.3513C162.068 16.445 162.787 15.7392 163.697 15.2328C164.606 14.7275 165.603 14.4749 166.688 14.4749C167.773 14.4749 168.783 14.7275 169.688 15.2328C170.591 15.7381 171.307 16.445 171.832 17.3513C172.358 18.2576 172.621 19.2832 172.621 20.4259C172.621 21.5686 172.358 22.5931 171.832 23.5005C171.307 24.4068 170.589 25.116 169.68 25.6271C168.77 26.1382 167.773 26.3931 166.688 26.3931C165.603 26.3931 164.606 26.1382 163.697 25.6271ZM168.635 22.5861C169.112 22.0484 169.35 21.3275 169.35 20.427C169.35 19.5266 169.112 18.7756 168.635 18.2425C168.158 17.7094 167.51 17.4428 166.688 17.4428C165.867 17.4428 165.203 17.7094 164.732 18.2425C164.261 18.7756 164.025 19.5034 164.025 20.427C164.025 21.3507 164.261 22.0623 164.732 22.5942C165.203 23.1273 165.855 23.3939 166.688 23.3939C167.521 23.3939 168.159 23.125 168.635 22.5861Z" fill="white"></path></g><defs><clipPath id="clip0_39_3710"><rect width="176" height="28.3239" fill="white"></rect></clipPath></defs></svg>