<svg width="18" height="15" viewBox="0 0 18 18" fill="none" xmlns="http://www.w3.org/2000/svg"><g clip-path="url(#clip0_5165_19801)"><path d="M3 4.21158L5.64126 1.57031V4.21158H3Z" stroke="#909192" stroke-width="1.5" stroke-miterlimit="10" stroke-linecap="round" stroke-linejoin="round"></path><path d="M3 4.21265V15.0632C3 15.4916 3.35693 15.8485 3.78524 15.8485H14.0648C14.4931 15.8485 14.85 15.4916 14.85 15.0632V2.28524C14.85 1.85693 14.4931 1.5 14.0648 1.5H5.64126L3 4.21265Z" stroke="#909192" stroke-width="1.5" stroke-miterlimit="10" stroke-linecap="round" stroke-linejoin="round"></path><path d="M6.0577 8C6.44595 8 6.73571 8.08263 6.92698 8.2479C7.1211 8.41317 7.21816 8.64846 7.21816 8.95378C7.21816 9.09104 7.19818 9.22269 7.15821 9.34874C7.11825 9.47199 7.05259 9.58403 6.96123 9.68487C6.87274 9.78291 6.75426 9.86134 6.60581 9.92017C6.45737 9.97619 6.27466 10.0042 6.0577 10.0042H5.82646V11H5V8H6.0577ZM6.04057 8.65546H5.82646V9.34454H5.98918C6.06055 9.34454 6.12621 9.33333 6.18616 9.31092C6.24897 9.28571 6.29893 9.2465 6.33604 9.19328C6.37315 9.13725 6.39171 9.06443 6.39171 8.97479C6.39171 8.87955 6.36316 8.80252 6.30606 8.7437C6.24897 8.68487 6.16047 8.65546 6.04057 8.65546Z" fill="#909192"></path><path d="M10.4719 9.43697C10.4719 9.78431 10.4048 10.0742 10.2707 10.3067C10.1393 10.5392 9.95377 10.7129 9.71397 10.8277C9.47417 10.9426 9.19154 11 8.8661 11H7.87692V8H8.93461C9.26291 8 9.54125 8.05602 9.76964 8.16807C9.99802 8.27731 10.1722 8.43838 10.2921 8.65126C10.412 8.86415 10.4719 9.12605 10.4719 9.43697ZM9.61548 9.46639C9.61548 9.28431 9.58979 9.13305 9.5384 9.01261C9.48987 8.89216 9.41564 8.80252 9.31573 8.7437C9.21866 8.68487 9.09448 8.65546 8.94318 8.65546H8.70338V10.3361H8.88751C9.13873 10.3361 9.32286 10.2647 9.43991 10.1218C9.55696 9.97899 9.61548 9.7605 9.61548 9.46639Z" fill="#909192"></path><path d="M12.0065 11H11.1929V8H13V8.65126H12.0065V9.22269H12.9229V9.87395H12.0065V11Z" fill="#909192"></path></g><defs><clipPath id="clip0_5165_19801"><rect width="18" height="18" fill="white"></rect></clipPath></defs></svg>