<svg width="22" height="22" viewBox="0 0 22 22" fill="none" xmlns="http://www.w3.org/2000/svg"><path d="M6 4.5V3C6 1.89543 6.89543 1 8 1H16.5509C16.8366 1 17.1086 1.12215 17.2983 1.33564L20.7474 5.21584C20.9101 5.39889 21 5.63529 21 5.8802V19C21 20.1046 20.1046 21 19 21H7.5C6.67157 21 6 20.3284 6 19.5V19.5" stroke="#2661C5" stroke-width="1.6" stroke-linecap="round"></path><path d="M17 1V6H21" stroke="#2661C5" stroke-width="1.6" stroke-linecap="round" stroke-linejoin="round"></path><circle cx="3.75" cy="15.5" r="1" fill="#2661C5"></circle><circle cx="9" cy="15.5" r="1" fill="#2661C5"></circle><line x1="13.8" y1="11.2" x2="18.2" y2="11.2" stroke="#2661C5" stroke-width="1.6" stroke-linecap="round"></line><path d="M12.5 14.2L18.2 14.2" stroke="#2661C5" stroke-width="1.6" stroke-linecap="round"></path><path d="M1 6.5H1.20449C1.67014 6.5 2.07417 6.82141 2.17888 7.27514L3.32112 12.2249C3.42583 12.6786 3.82986 13 4.29551 13H8.69783C9.16653 13 9.57234 12.6745 9.67402 12.2169L10.2296 9.71693C10.3684 9.09242 9.89313 8.5 9.25338 8.5H3" stroke="#2661C5" stroke-width="1.4" stroke-linecap="round" stroke-linejoin="round"></path></svg>