  <svg width="14" height="14" viewBox="0 0 16 16" fill="none" xmlns="http://www.w3.org/2000/svg"><path d="M6.33317 0.083252C7.49815 0.0832051 8.63996 0.408763 9.62974 1.02319C10.6195 1.63761 11.4179 2.51644 11.9347 3.56051C12.4515 4.60457 12.6663 5.7723 12.5547 6.93193C12.4431 8.09155 12.0096 9.19691 11.3032 10.1233L15.2557 14.0774C15.4051 14.2274 15.4919 14.4286 15.4984 14.6402C15.5048 14.8519 15.4305 15.058 15.2905 15.2168C15.1504 15.3756 14.9552 15.4752 14.7444 15.4953C14.5337 15.5153 14.3232 15.4544 14.1557 15.3249L14.0773 15.2558L10.1232 11.3033C9.334 11.905 8.41288 12.3102 7.43604 12.4852C6.45919 12.6603 5.45469 12.6002 4.50567 12.31C3.55664 12.0198 2.69038 11.5077 1.97855 10.8162C1.26671 10.1247 0.729787 9.27363 0.41219 8.33341C0.0945934 7.39319 0.00545908 6.39085 0.152163 5.40934C0.298866 4.42784 0.67719 3.49537 1.25583 2.68911C1.83447 1.88285 2.59679 1.22597 3.4797 0.772824C4.36262 0.319681 5.34075 0.0833043 6.33317 0.083252ZM6.33317 1.74992C5.11759 1.74992 3.9518 2.2328 3.09226 3.09235C2.23272 3.95189 1.74983 5.11768 1.74983 6.33325C1.74983 7.54883 2.23272 8.71462 3.09226 9.57416C3.9518 10.4337 5.11759 10.9166 6.33317 10.9166C7.54874 10.9166 8.71453 10.4337 9.57407 9.57416C10.4336 8.71462 10.9165 7.54883 10.9165 6.33325C10.9165 5.11768 10.4336 3.95189 9.57407 3.09235C8.71453 2.2328 7.54874 1.74992 6.33317 1.74992Z" fill="#737373"></path></svg>
