<svg width="20" height="19" viewBox="0 0 20 19" fill="none" xmlns="http://www.w3.org/2000/svg"><path d="M8.21951 9.28041C8.5124 9.57331 8.98727 9.57331 9.28017 9.28041C9.57306 8.98752 9.57306 8.51264 9.28017 8.21975L8.21951 9.28041ZM2.49984 1.66675L2.73701 0.955236C2.46751 0.865402 2.17038 0.935544 1.96951 1.13642L2.49984 1.66675ZM4.99984 2.50008H5.74984C5.74984 2.17726 5.54326 1.89065 5.23701 1.78857L4.99984 2.50008ZM2.49984 5.00008L1.78832 5.23725C1.89041 5.54351 2.17701 5.75008 2.49984 5.75008V5.00008ZM1.6665 2.50008L1.13617 1.96975C0.9353 2.17063 0.865158 2.46775 0.954991 2.73725L1.6665 2.50008ZM16.049 2.28426L16.5793 2.81459C16.7439 2.64997 16.8228 2.41824 16.7927 2.18738C16.7626 1.95652 16.6271 1.75272 16.4258 1.63577L16.049 2.28426ZM17.9909 4.50901L18.6846 4.22392C18.5893 3.9919 18.3842 3.82291 18.1382 3.77363C17.8923 3.72435 17.638 3.8013 17.4606 3.97868L17.9909 4.50901ZM8.88069 8.61922L8.35036 8.08889L8.88069 8.61922ZM9.26635 8.18299L9.92762 8.53686L9.26635 8.18299ZM9.25322 7.14195L8.5174 7.28707L9.25322 7.14195ZM9.36084 7.87242L10.1071 7.94679L9.36084 7.87242ZM2.91651 17.0834L2.38617 17.6137L2.91651 17.0834ZM2.91651 14.5834L3.44684 15.1137L2.91651 14.5834ZM12.858 10.7467L12.7128 11.4825L12.858 10.7467ZM12.1275 10.6391L12.2019 11.3854L12.1275 10.6391ZM11.3807 11.1192L11.911 11.6496L11.3807 11.1192ZM11.8169 10.7336L11.4631 10.0723V10.0723L11.8169 10.7336ZM5.4165 17.0834L4.88617 16.5531L5.4165 17.0834ZM14.057 6.55727L14.5874 6.02694L14.5874 6.02694L14.057 6.55727ZM14.7423 7.11412L14.5106 7.82741L14.7423 7.11412ZM15.9426 6.55727L16.473 7.0876L15.9426 6.55727ZM15.2574 7.11412L15.4891 7.82741L15.2574 7.11412ZM13.8593 4.47394L13.329 3.94361L13.8593 4.47394ZM13.3025 5.15923L12.5892 4.92747L13.3025 5.15923ZM13.8593 6.35956L13.329 6.88989L13.329 6.88989L13.8593 6.35956ZM13.3025 5.67426L12.5892 5.90603L13.3025 5.67426ZM9.99988 12.5L9.46955 11.9697C9.3289 12.1104 9.24988 12.3011 9.24988 12.5C9.24988 12.6989 9.3289 12.8897 9.46955 13.0304L9.99988 12.5ZM13.3126 10.8128L13.8429 10.2825C13.7195 10.1591 13.557 10.0826 13.3833 10.0662L13.3126 10.8128ZM12.5338 10.6704L12.7323 9.94711L12.5338 10.6704ZM11.6162 10.8837L12.1466 11.414L11.6162 10.8837ZM17.0831 14.5833L17.6135 14.053L17.0831 14.5833ZM14.5832 17.0833L14.0528 17.6137L14.5832 17.0833ZM4.46951 5.53041L8.21951 9.28041L9.28017 8.21975L5.53017 4.46975L4.46951 5.53041ZM2.26267 2.37826L4.76267 3.21159L5.23701 1.78857L2.73701 0.955236L2.26267 2.37826ZM3.21135 4.76291L2.37802 2.26291L0.954991 2.73725L1.78832 5.23725L3.21135 4.76291ZM2.19683 3.03041L3.03017 2.19708L1.96951 1.13642L1.13617 1.96975L2.19683 3.03041ZM4.99984 4.25008H2.49984V5.75008H4.99984V4.25008ZM4.24984 2.50008V5.00008H5.74984V2.50008H4.24984ZM14.3896 5.00427L16.5793 2.81459L15.5187 1.75393L13.329 3.94361L14.3896 5.00427ZM14.5874 6.02694L14.3896 5.82923L13.329 6.88989L13.5267 7.0876L14.5874 6.02694ZM17.4606 3.97868L15.4123 6.02694L16.473 7.0876L18.5212 5.03934L17.4606 3.97868ZM19.0832 6.25008C19.0832 5.53427 18.9417 4.84961 18.6846 4.22392L17.2972 4.7941C17.4813 5.24203 17.5832 5.73322 17.5832 6.25008H19.0832ZM13.7498 11.5834C16.6954 11.5834 19.0832 9.1956 19.0832 6.25008H17.5832C17.5832 8.36717 15.8669 10.0834 13.7498 10.0834V11.5834ZM12.7128 11.4825C13.0489 11.5488 13.3957 11.5834 13.7498 11.5834V10.0834C13.4936 10.0834 13.244 10.0584 13.0031 10.0109L12.7128 11.4825ZM5.94683 17.6137L11.911 11.6496L10.8504 10.5889L4.88617 16.5531L5.94683 17.6137ZM8.35036 8.08889L2.38618 14.0531L3.44684 15.1137L9.41102 9.14955L8.35036 8.08889ZM8.4165 6.25008C8.4165 6.60424 8.45113 6.95104 8.5174 7.28707L9.98905 6.99683C9.94153 6.75588 9.9165 6.50628 9.9165 6.25008H8.4165ZM13.7498 0.916748C10.8043 0.916748 8.4165 3.30456 8.4165 6.25008H9.9165C9.9165 4.13299 11.6327 2.41675 13.7498 2.41675V0.916748ZM16.4258 1.63577C15.6386 1.17842 14.7236 0.916748 13.7498 0.916748V2.41675C14.4519 2.41675 15.1077 2.60479 15.6722 2.93275L16.4258 1.63577ZM9.41102 9.14955C9.58777 8.97281 9.80336 8.76905 9.92762 8.53686L8.60508 7.82912C8.61824 7.80453 8.62324 7.80633 8.57808 7.8561C8.53135 7.90761 8.46473 7.97453 8.35036 8.08889L9.41102 9.14955ZM8.5174 7.28707C8.55854 7.49566 8.5851 7.63099 8.60079 7.73021C8.61817 7.8401 8.61039 7.8396 8.61453 7.79806L10.1071 7.94679C10.1235 7.78245 10.1019 7.61927 10.0824 7.4959C10.0612 7.36186 10.0278 7.19335 9.98905 6.99683L8.5174 7.28707ZM9.92762 8.53686C9.96992 8.45782 10.0151 8.3644 10.0495 8.25158C10.0838 8.13876 10.0983 8.03599 10.1071 7.94679L8.61453 7.79806C8.61244 7.81902 8.61103 7.82756 8.61074 7.82919C8.61069 7.8295 8.61173 7.82378 8.6144 7.81499C8.61708 7.8062 8.6194 7.80086 8.61927 7.80116C8.6186 7.80267 8.61502 7.81055 8.60508 7.82912L9.92762 8.53686ZM3.44684 16.5531C3.04937 16.1556 3.04937 15.5112 3.44684 15.1137L2.38618 14.0531C1.40293 15.0363 1.40293 16.6305 2.38617 17.6137L3.44684 16.5531ZM13.0031 10.0109C12.8066 9.97211 12.6381 9.93874 12.504 9.91755C12.3806 9.89803 12.2175 9.8764 12.0531 9.89278L12.2019 11.3854C12.1603 11.3895 12.1598 11.3818 12.2697 11.3991C12.3689 11.4148 12.5043 11.4414 12.7128 11.4825L13.0031 10.0109ZM11.911 11.6496C12.0254 11.5352 12.0923 11.4686 12.1438 11.4218C12.1936 11.3767 12.1954 11.3817 12.1708 11.3948L11.4631 10.0723C11.2309 10.1966 11.0271 10.4121 10.8504 10.5889L11.911 11.6496ZM12.0531 9.89278C11.9639 9.90167 11.8612 9.91614 11.7483 9.95046C11.6355 9.98479 11.5421 10.03 11.4631 10.0723L12.1708 11.3948C12.1894 11.3849 12.1972 11.3813 12.1988 11.3806C12.1991 11.3805 12.1937 11.3828 12.1849 11.3855C12.1761 11.3882 12.1704 11.3892 12.1707 11.3892C12.1724 11.3889 12.1809 11.3875 12.2019 11.3854L12.0531 9.89278ZM4.88617 16.5531C4.48871 16.9505 3.8443 16.9505 3.44684 16.5531L2.38617 17.6137C3.36942 18.597 4.96358 18.597 5.94683 17.6137L4.88617 16.5531ZM13.5267 7.0876C13.683 7.24386 13.8316 7.39336 13.9667 7.50802C14.1085 7.62837 14.2838 7.75372 14.5106 7.82741L14.9741 6.40083C15.0106 6.41269 15.0083 6.42463 14.9375 6.36451C14.86 6.29871 14.7611 6.2007 14.5874 6.02694L13.5267 7.0876ZM15.4123 6.02694C15.2386 6.2007 15.1397 6.29871 15.0622 6.36451C14.9914 6.42463 14.9891 6.41269 15.0256 6.40083L15.4891 7.82741C15.7159 7.75372 15.8912 7.62837 16.033 7.50802C16.168 7.39336 16.3167 7.24386 16.473 7.0876L15.4123 6.02694ZM14.5106 7.82741C14.8286 7.93073 15.1711 7.93073 15.4891 7.82741L15.0256 6.40083C15.0089 6.40626 14.9908 6.40626 14.9741 6.40083L14.5106 7.82741ZM13.329 3.94361C13.1727 4.09987 13.0232 4.24854 12.9086 4.38361C12.7882 4.52537 12.6629 4.70067 12.5892 4.92747L14.0158 5.391C14.0039 5.42752 13.992 5.42518 14.0521 5.35437C14.1179 5.27686 14.2159 5.17803 14.3896 5.00427L13.329 3.94361ZM14.3896 5.82923C14.2159 5.65547 14.1179 5.55663 14.0521 5.47912C13.992 5.40831 14.0039 5.40597 14.0158 5.4425L12.5892 5.90603C12.6629 6.13283 12.7882 6.30813 12.9086 6.44989C13.0232 6.58496 13.1727 6.73363 13.329 6.88989L14.3896 5.82923ZM12.5892 4.92747C12.4859 5.24547 12.4859 5.58802 12.5892 5.90603L14.0158 5.4425C14.0103 5.42576 14.0103 5.40773 14.0158 5.391L12.5892 4.92747ZM15.1135 16.553L10.5302 11.9697L9.46955 13.0304L14.0528 17.6137L15.1135 16.553ZM12.7823 11.3432L16.5528 15.1137L17.6135 14.053L13.8429 10.2825L12.7823 11.3432ZM13.3833 10.0662C13.1599 10.045 12.9424 10.0048 12.7323 9.94711L12.3353 11.3936C12.6285 11.4741 12.9315 11.5301 13.2419 11.5595L13.3833 10.0662ZM12.7323 9.94711C12.1989 9.80069 11.5487 9.89051 11.0859 10.3534L12.1466 11.414C12.1548 11.4058 12.1706 11.3942 12.2025 11.3873C12.2365 11.3798 12.2834 11.3794 12.3353 11.3936L12.7323 9.94711ZM11.0859 10.3534L9.46955 11.9697L10.5302 13.0304L12.1466 11.414L11.0859 10.3534ZM17.6135 17.6137C18.5967 16.6304 18.5967 15.0362 17.6135 14.053L16.5528 15.1137C16.9503 15.5111 16.9503 16.1555 16.5528 16.553L17.6135 17.6137ZM14.0528 17.6137C15.0361 18.5969 16.6302 18.5969 17.6135 17.6137L16.5528 16.553C16.1554 16.9505 15.511 16.9505 15.1135 16.553L14.0528 17.6137Z" fill="#8DABD8" stroke-width="0"></path></svg>