<svg width="24" height="24" viewBox="0 0 24 24" fill="none" xmlns="http://www.w3.org/2000/svg"><path d="M18.87 17C19.3118 17 19.67 17.3582 19.67 17.8V17.8C19.67 18.2418 19.3118 18.6 18.87 18.6H13.3327C12.763 18.6 12.4003 17.9669 12.6418 17.4509V17.4509C12.7642 17.1893 13.0285 17 13.3173 17H18.87Z" fill="#2661C5"></path><path d="M8.98942 11H5V11.6565H6.60847V12.2144H5.78307V12.6958H6.65079C6.48148 13.3851 5.08466 13.7133 5.01058 13.6696C5.46561 15.3217 6.66138 16 6.66138 16H7.89947C6.36508 15.3217 6.00529 14.1947 6.00529 14.1947C6.5873 14.0744 7.17989 13.6368 7.30688 12.7068H8.15344V12.2254H7.30688V11.6674H9V11.0109L8.98942 11Z" fill="#2661C5"></path><path d="M14 14L15.5 13L16 15L19.5 12.5M19.5 12.5L17.5 12M19.5 12.5L19 14.5" stroke="#2661C5" stroke-width="1.2" stroke-linecap="round" stroke-linejoin="round"></path><path d="M7 5.5V4C7 2.89543 7.89543 2 9 2H17.5509C17.8366 2 18.1086 2.12215 18.2983 2.33564L21.7474 6.21584C21.9101 6.39889 22 6.63529 22 6.8802V20C22 21.1046 21.1046 22 20 22H8.5C7.67157 22 7 21.3284 7 20.5V20.5" stroke="#2661C5" stroke-width="1.6" stroke-linecap="round"></path><path d="M18 2V7H22" stroke="#2661C5" stroke-width="1.6" stroke-linecap="round" stroke-linejoin="round"></path><circle cx="7" cy="13" r="5.3" stroke="#2661C5" stroke-width="1.4"></circle></svg>