                                                <svg width="18" height="14" viewBox="0 0 18 14" fill="none" xmlns="http://www.w3.org/2000/svg"><path d="M4.24019 0.577529L0.911024 3.91086L0.841025 3.99003C0.716755 4.15046 0.655299 4.35073 0.668187 4.55325C0.681075 4.75578 0.767421 4.94664 0.911024 5.09003L0.990191 5.1592C1.15063 5.28346 1.35089 5.34492 1.55342 5.33203C1.75594 5.31914 1.9468 5.2328 2.09019 5.08919L4.00019 3.17503V12.8334L4.00602 12.9309C4.02972 13.1337 4.12708 13.3208 4.27963 13.4566C4.43218 13.5924 4.62929 13.6675 4.83352 13.6675L4.93102 13.6617C5.13388 13.6378 5.32089 13.5402 5.45654 13.3875C5.59219 13.2348 5.66703 13.0376 5.66686 12.8334V3.18086L7.57769 5.08919L7.65686 5.1592C7.82437 5.29029 8.03568 5.35237 8.24748 5.33271C8.45928 5.31305 8.65555 5.21313 8.79607 5.05344C8.93659 4.89374 9.01072 4.68636 9.00327 4.47378C8.99583 4.26119 8.90737 4.0595 8.75602 3.91003L5.41769 0.576695L5.33936 0.507529C5.17892 0.383259 4.97866 0.321803 4.77613 0.334691C4.57361 0.347579 4.38275 0.433925 4.23936 0.577529H4.24019ZM13.1669 0.335862L13.0694 0.341695C12.8666 0.365576 12.6798 0.463023 12.5441 0.615552C12.4085 0.768081 12.3336 0.965084 12.3335 1.16919V10.8192L10.4227 8.91086L10.3435 8.84086C10.176 8.71129 9.96532 8.6504 9.75446 8.67056C9.5436 8.69073 9.34833 8.79043 9.20835 8.94941C9.06837 9.10839 8.99418 9.31471 9.00087 9.52643C9.00756 9.73814 9.09462 9.93937 9.24436 10.0892L12.581 13.4225L12.6594 13.4925C12.8198 13.6168 13.0201 13.6783 13.2226 13.6654C13.4251 13.6525 13.616 13.5661 13.7594 13.4225L17.0894 10.0892L17.1594 10.01C17.2836 9.84959 17.3451 9.64933 17.3322 9.4468C17.3193 9.24428 17.233 9.05342 17.0894 8.91003L17.0102 8.84086C16.8498 8.71659 16.6495 8.65514 16.447 8.66802C16.2444 8.68091 16.0536 8.76726 15.9102 8.91086L14.0002 10.8225V1.16919L13.9944 1.07253C13.9707 0.869669 13.8733 0.682572 13.7208 0.546769C13.5682 0.410966 13.3711 0.335913 13.1669 0.335862Z" fill="#737373"></path></svg> 
