   <svg width="12" height="12" viewBox="0 0 18 18" fill="none" xmlns="http://www.w3.org/2000/svg"><path d="M4.56569 6.43431C4.25327 6.1219 3.74673 6.1219 3.43431 6.43431C3.1219 6.74673 3.1219 7.25327 3.43431 7.56569L4.56569 6.43431ZM10 13L9.43431 13.5657C9.74673 13.8781 10.2533 13.8781 10.5657 13.5657L10 13ZM16.5657 7.56569C16.8781 7.25327 16.8781 6.74673 16.5657 6.43431C16.2533 6.1219 15.7467 6.1219 15.4343 6.43431L16.5657 7.56569ZM3.43431 7.56569L9.43431 13.5657L10.5657 12.4343L4.56569 6.43431L3.43431 7.56569ZM10.5657 13.5657L16.5657 7.56569L15.4343 6.43431L9.43431 12.4343L10.5657 13.5657Z" fill="#2661C5"></path></svg>
