<svg width="23" height="22" viewBox="0 0 23 22" fill="none" xmlns="http://www.w3.org/2000/svg"><path d="M19.6758 14.403C19.6758 14.9891 19.4454 15.5512 19.0354 15.9656C18.6254 16.3801 18.0694 16.6129 17.4896 16.6129H4.37239L0 21.0327V4.92375C0 4.33766 0.23033 3.77556 0.640321 3.36113C1.05031 2.94669 1.60638 2.71387 2.18619 2.71387H17.4896C18.0694 2.71387 18.6254 2.94669 19.0354 3.36113C19.4454 3.77556 19.6758 4.33766 19.6758 4.92375V14.403Z" fill="white"></path><path fill-rule="evenodd" clip-rule="evenodd" d="M21.988 14.8469C22.4031 14.4318 22.6364 13.8687 22.6364 13.2816V2.21361C22.6364 1.62652 22.4031 1.06348 21.988 0.648351C21.5729 0.233219 21.0098 0 20.4228 0H4.9275C4.34042 0 3.77738 0.233219 3.36224 0.648351C3.01143 0.999162 2.79053 1.4556 2.7305 1.94291H18.4867C19.1047 1.94291 19.6974 2.1884 20.1343 2.62539C20.5713 3.06237 20.8168 3.65504 20.8168 4.27302V15.4599C21.2575 15.3802 21.667 15.1679 21.988 14.8469Z" fill="white" fill-opacity="0.65"></path></svg>