<svg width="128" height="128" viewBox="0 0 128 128" fill="none" xmlns="http://www.w3.org/2000/svg"><g clip-path="url(#clip0_3930_114986)"><path d="M126.955 63.1663H0.851562V102.412C0.851562 104.621 2.64242 106.412 4.85156 106.412H122.955C125.164 106.412 126.955 104.621 126.955 102.412V63.1663Z" fill="#E6E6E6"></path><path d="M124.066 58.0224V34.0063H109.895H17.9174H3.27734V58.031H3.73804" fill="#E6E6E6"></path><path d="M0.851562 62.9195L17.9145 34.0063H109.892L126.955 62.9195" fill="#BABABA"></path><path d="M11.2969 58.0226L22.5414 38.4172H106.474L118.119 58.0226H11.2969Z" fill="#909192"></path><path d="M22.8086 52.6663V38.1663L11.3086 58.1663H17.3086L22.8086 52.6663Z" fill="#797A7A"></path><path d="M106.809 52.6663V38.1663L118.309 58.1663H112.309L106.809 52.6663Z" fill="#797A7A"></path><circle cx="47.8086" cy="84.1663" r="4" fill="#0752AD"></circle><circle cx="78.8086" cy="84.1663" r="4" fill="#0752AD"></circle><path d="M77.1366 81.5835H50.6805C49.1138 81.5835 47.8438 82.8535 47.8438 84.4202C47.8438 85.9869 49.1138 87.2569 50.6805 87.2569H77.1366C78.7032 87.2569 79.9733 85.9869 79.9733 84.4202C79.9733 82.8535 78.7032 81.5835 77.1366 81.5835Z" fill="#186FD9"></path><path d="M101.355 9.44434C101.91 9.51259 102.473 9.5979 103.045 9.69175" stroke="white" stroke-width="1.70629" stroke-miterlimit="10"></path><path d="M106.089 16.3661C108.639 15.6522 110.325 13.7088 109.853 12.0255C109.382 10.3421 106.933 9.55623 104.383 10.2701C101.833 10.984 100.148 12.9274 100.619 14.6107C101.09 16.2941 103.539 17.08 106.089 16.3661Z" fill="#424248"></path><path d="M110.443 6.8466C109.868 4.26173 108.019 2.47398 106.312 2.85353C104.606 3.23308 103.689 5.6362 104.264 8.22107C104.839 10.8059 106.688 12.5937 108.394 12.2141C110.101 11.8346 111.018 9.43146 110.443 6.8466Z" fill="#BABABA"></path><path d="M108.079 12.2799C109.24 10.9733 108.577 8.48807 106.598 6.72894C104.618 4.96981 102.073 4.60297 100.911 5.90957C99.75 7.21618 100.413 9.70145 102.392 11.4606C104.372 13.2197 106.918 13.5866 108.079 12.2799Z" fill="#EAEBEB"></path><path d="M110.721 14.423C112.463 13.9353 113.615 12.6092 113.294 11.4613C112.972 10.3133 111.299 9.77817 109.557 10.266C107.815 10.7537 106.663 12.0798 106.984 13.2277C107.306 14.3757 108.979 14.9108 110.721 14.423Z" fill="#424248"></path><path d="M31.0238 18.1971C31.2228 17.7804 31.0462 17.2813 30.6295 17.0824C30.2128 16.8834 29.7137 17.06 29.5148 17.4767L26.7288 23.3126C26.5298 23.7293 26.7064 24.2284 27.1231 24.4273C27.5398 24.6263 28.0388 24.4497 28.2378 24.033L31.0238 18.1971Z" fill="#1D252F"></path><path d="M18.1703 15.6055C18.0609 15.1568 17.6086 14.8818 17.16 14.9912C16.7113 15.1006 16.4363 15.5529 16.5457 16.0015L18.0773 22.2844C18.1867 22.733 18.639 23.008 19.0876 22.8986C19.5363 22.7893 19.8113 22.3369 19.7019 21.8883L18.1703 15.6055Z" fill="#1D252F"></path><path d="M7.99054 23.7755C7.57384 23.5766 7.07476 23.7531 6.87583 24.1698C6.67689 24.5865 6.85343 25.0856 7.27014 25.2845L13.1061 28.0706C13.5228 28.2695 14.0219 28.093 14.2208 27.6763C14.4197 27.2595 14.2432 26.7605 13.8265 26.5615L7.99054 23.7755Z" fill="#1D252F"></path><path d="M106.809 52.1663H22.8086L17.3086 58.1663H112.809L106.809 52.1663Z" fill="#424248"></path><path d="M0.808594 62.6663L18.3086 33.6663H110.309L127.309 63.1663" stroke="#424248" stroke-width="1.6"></path><path d="M1.30859 62.6663H109.309" stroke="#424248" stroke-width="1.6"></path><path d="M0.808594 70.1663V102.166C0.808594 104.375 2.59945 106.166 4.80859 106.166H118.309" stroke="#424248" stroke-width="1.6"></path><path d="M126.809 62.6663V91.1663" stroke="#424248" stroke-width="1.6"></path><path d="M76.8089 52.6663C76.4756 42.6663 80.2089 21.5663 97.8089 17.1663" stroke="#424248" stroke-width="1.6" stroke-dasharray="4 4"></path></g><path d="M7.57914 121.427L11.8086 112.666H116.309L120.282 121.53C121.468 124.176 119.532 127.166 116.632 127.166H11.1814C8.23205 127.166 6.29694 124.083 7.57914 121.427Z" fill="#E4E4E4"></path><defs><clipPath id="clip0_3930_114986"><rect width="127.81" height="107.019" fill="white"></rect></clipPath></defs></svg>