<svg width="15" height="15" viewBox="0 0 10 11" fill="none" xmlns="http://www.w3.org/2000/svg"><path fill-rule="evenodd" clip-rule="evenodd" d="M6.34521 1.26514C6.34521 0.988994 6.56907 0.765137 6.84521 0.765137H8.07022C8.59636 0.765137 9.02522 1.19399 9.02522 1.72014V5.33014C9.02522 5.60628 8.80136 5.83014 8.52522 5.83014C8.24907 5.83014 8.02522 5.60628 8.02522 5.33014V1.76514H6.84521C6.56907 1.76514 6.34521 1.54128 6.34521 1.26514Z" fill="#2661C5"></path><path fill-rule="evenodd" clip-rule="evenodd" d="M0.5 1.72014C0.5 1.19759 0.92028 0.765137 1.455 0.765137H2.685C2.96114 0.765137 3.185 0.988994 3.185 1.26514C3.185 1.54128 2.96114 1.76514 2.685 1.76514H1.5V9.43014H4.245C4.52114 9.43014 4.745 9.65399 4.745 9.93014C4.745 10.2063 4.52114 10.4301 4.245 10.4301H1.455C0.92028 10.4301 0.5 9.99769 0.5 9.47514V1.72014Z" fill="#2661C5"></path><path fill-rule="evenodd" clip-rule="evenodd" d="M3.18506 1V1.585H6.34506V1H3.18506ZM2.18506 0.795C2.18506 0.355934 2.54099 0 2.98006 0H6.55006C6.98912 0 7.34506 0.355934 7.34506 0.795V1.79C7.34506 2.22907 6.98912 2.585 6.55006 2.585H2.98006C2.54099 2.585 2.18506 2.22907 2.18506 1.79V0.795Z" fill="#2661C5"></path><path fill-rule="evenodd" clip-rule="evenodd" d="M1.74023 4.18994C1.74023 3.9138 1.96409 3.68994 2.24023 3.68994H4.91023C5.18638 3.68994 5.41023 3.9138 5.41023 4.18994C5.41023 4.46608 5.18638 4.68994 4.91023 4.68994H2.24023C1.96409 4.68994 1.74023 4.46608 1.74023 4.18994Z" fill="#2661C5"></path><path fill-rule="evenodd" clip-rule="evenodd" d="M1.74023 5.82471C1.74023 5.54856 1.96409 5.32471 2.24023 5.32471H5.98023C6.25638 5.32471 6.48023 5.54856 6.48023 5.82471C6.48023 6.10085 6.25638 6.32471 5.98023 6.32471H2.24023C1.96409 6.32471 1.74023 6.10085 1.74023 5.82471Z" fill="#2661C5"></path><path fill-rule="evenodd" clip-rule="evenodd" d="M5.4751 6.43994C5.75124 6.43994 5.9751 6.6638 5.9751 6.93994V9.93994C5.9751 10.2161 5.75124 10.4399 5.4751 10.4399C5.19896 10.4399 4.9751 10.2161 4.9751 9.93994V6.93994C4.9751 6.6638 5.19896 6.43994 5.4751 6.43994Z" fill="#2661C5"></path><path fill-rule="evenodd" clip-rule="evenodd" d="M6.9751 6.43994C7.25124 6.43994 7.4751 6.6638 7.4751 6.93994V9.93994C7.4751 10.2161 7.25124 10.4399 6.9751 10.4399C6.69896 10.4399 6.4751 10.2161 6.4751 9.93994V6.93994C6.4751 6.6638 6.69896 6.43994 6.9751 6.43994Z" fill="#2661C5"></path><path fill-rule="evenodd" clip-rule="evenodd" d="M8.4751 6.43994C8.75124 6.43994 8.9751 6.6638 8.9751 6.93994V9.93994C8.9751 10.2161 8.75124 10.4399 8.4751 10.4399C8.19896 10.4399 7.9751 10.2161 7.9751 9.93994V6.93994C7.9751 6.6638 8.19896 6.43994 8.4751 6.43994Z" fill="#2661C5"></path></svg>